<?xml version="1.0" standalone="no"?>
<!DOCTYPE svg PUBLIC "-//W3C//DTD SVG 20010904//EN"
 "http://www.w3.org/TR/2001/REC-SVG-20010904/DTD/svg10.dtd">
<svg version="1.0" xmlns="http://www.w3.org/2000/svg"
 width="1244.000000pt" height="1244.000000pt" viewBox="0 0 1244.000000 1244.000000"
 preserveAspectRatio="xMidYMid meet">
<metadata>
Created by potrace 1.11, written by Peter Selinger 2001-2013
</metadata>
<g transform="translate(0.000000,1244.000000) scale(0.100000,-0.100000)"
fill="#000000" stroke="none">
<path d="M3408 10625 c-2 -2 -40 -7 -83 -11 -194 -15 -295 -28 -430 -54 -27
-5 -61 -12 -75 -14 -101 -18 -402 -96 -445 -115 -41 -18 -111 -41 -127 -41 -8
0 -21 -6 -27 -14 -7 -8 -28 -17 -49 -21 -20 -4 -39 -10 -42 -15 -3 -4 -14 -10
-25 -12 -11 -1 -22 -5 -25 -9 -3 -3 -30 -15 -60 -28 -73 -30 -321 -159 -341
-177 -8 -8 -18 -14 -22 -14 -3 0 -25 -13 -49 -28 -24 -16 -73 -48 -110 -72
-38 -25 -68 -48 -68 -52 0 -4 -5 -8 -11 -8 -8 0 -125 -87 -165 -125 -7 -5 -36
-30 -65 -55 -85 -71 -277 -266 -364 -370 -114 -135 -110 -131 -145 -182 -14
-21 -28 -38 -32 -38 -5 0 -8 -6 -8 -14 0 -8 -3 -16 -8 -18 -9 -4 -119 -170
-134 -204 -6 -13 -16 -24 -21 -24 -6 0 -7 -3 -4 -6 4 -4 -1 -19 -11 -33 -9
-14 -22 -35 -29 -46 -12 -21 -96 -187 -98 -195 -1 -3 -9 -22 -18 -42 -10 -21
-17 -42 -17 -48 0 -5 -5 -10 -12 -10 -6 0 -8 -3 -5 -6 4 -4 0 -19 -7 -33 -13
-23 -39 -88 -42 -101 0 -3 -6 -18 -13 -35 -7 -16 -14 -37 -16 -45 -2 -8 -10
-33 -18 -56 -18 -50 -77 -257 -83 -292 -3 -15 -9 -43 -14 -62 -5 -19 -12 -53
-15 -75 -4 -22 -8 -48 -11 -57 -14 -47 -32 -188 -51 -388 -14 -154 -7 -672 11
-805 4 -22 8 -56 10 -75 20 -155 64 -386 90 -474 8 -27 14 -52 14 -55 -1 -3 1
-13 4 -21 3 -8 22 -69 42 -135 20 -66 43 -133 51 -148 8 -16 15 -35 15 -43 0
-7 11 -38 25 -68 14 -30 25 -57 25 -60 0 -3 20 -49 45 -102 25 -53 45 -97 45
-98 0 -7 118 -220 158 -286 153 -249 347 -489 533 -660 56 -52 112 -104 124
-115 12 -11 48 -40 81 -65 32 -25 62 -49 66 -55 4 -5 8 -6 8 -2 0 4 11 -3 24
-17 13 -15 26 -26 29 -26 4 0 46 -26 94 -58 118 -79 138 -90 283 -163 116 -58
158 -77 235 -109 40 -17 285 -101 305 -105 8 -2 69 -17 136 -34 66 -17 135
-32 152 -33 18 -1 32 -6 32 -11 0 -4 4 -6 8 -3 5 3 44 -1 88 -9 43 -7 104 -16
134 -20 30 -3 75 -8 100 -11 225 -24 779 -24 995 0 17 2 59 7 95 10 36 4 102
14 148 22 45 8 87 12 92 9 6 -3 10 -1 10 5 0 7 6 10 14 7 8 -3 17 -3 20 1 4 3
12 7 19 8 28 4 74 13 95 18 12 3 31 8 42 11 11 3 30 7 42 10 12 2 67 19 122
36 56 17 106 32 111 33 6 1 15 4 20 7 8 5 77 30 95 34 3 1 25 11 50 22 25 11
70 31 100 44 74 31 211 103 287 150 34 22 65 39 68 39 3 0 11 4 18 10 7 5 64
46 127 91 63 45 118 86 122 92 10 16 13 10 41 -73 93 -277 203 -516 344 -752
64 -107 203 -311 222 -328 3 -3 24 -27 46 -55 22 -27 49 -61 60 -75 35 -43
278 -284 334 -330 29 -25 59 -49 65 -55 30 -27 139 -106 206 -150 41 -28 77
-53 78 -57 2 -5 7 -8 12 -8 4 0 37 -18 72 -39 104 -63 324 -167 458 -216 41
-15 84 -31 95 -36 34 -13 221 -67 260 -74 19 -4 34 -7 85 -20 41 -10 66 -15
95 -20 17 -2 41 -7 55 -9 65 -13 88 -17 129 -22 81 -10 116 -14 176 -20 33 -3
83 -8 110 -10 89 -9 667 -9 765 0 52 4 115 10 140 12 25 1 45 3 45 4 0 1 14 3
30 5 72 7 215 31 280 45 22 5 55 12 74 15 19 3 37 8 41 10 4 2 21 7 38 10 55
9 263 74 362 113 52 20 97 37 100 37 3 1 27 11 53 23 27 12 53 22 58 22 5 0 9
5 9 11 0 5 4 8 9 4 5 -3 15 1 23 8 7 8 25 17 40 20 15 4 33 13 40 20 7 6 37
23 65 37 29 14 53 28 53 33 0 4 4 7 10 7 8 0 64 33 124 72 38 26 211 151 216
157 3 3 32 28 65 55 68 56 307 295 345 345 14 19 34 43 45 55 11 11 46 57 78
101 31 44 61 85 66 91 4 5 14 21 21 35 7 13 16 26 20 29 4 3 33 52 65 110 33
58 63 107 67 108 4 2 8 7 8 12 0 5 27 65 60 134 33 69 60 129 60 133 0 4 9 25
19 47 20 42 110 289 116 316 4 22 46 172 53 190 7 18 6 16 17 65 5 22 9 42 10
45 1 3 5 23 10 45 13 56 12 55 15 58 1 1 3 11 5 22 1 11 5 35 9 53 3 17 8 44
11 60 3 15 7 38 10 52 3 14 8 45 11 70 3 25 9 63 13 85 4 23 7 51 6 63 -1 12
1 22 4 22 3 0 6 12 7 28 1 30 12 160 19 232 3 25 8 140 11 257 l6 211 -71 4
c-39 1 -71 0 -71 -4 0 -4 -13 -3 -30 2 -17 5 -30 5 -30 0 0 -5 -6 -7 -13 -4
-22 8 -87 11 -87 3 0 -4 -13 -4 -30 1 -19 5 -30 5 -30 -1 0 -6 -5 -7 -10 -4
-6 4 -75 6 -153 5 -180 -1 -165 -1 -215 2 -23 2 -42 0 -42 -4 0 -4 -13 -3 -30
2 -19 5 -30 5 -30 -1 0 -6 -5 -7 -10 -4 -6 4 -75 6 -153 5 -78 0 -151 -1 -162
-1 -11 0 -85 0 -165 0 -80 0 -152 0 -160 0 -21 1 -273 0 -285 0 -5 0 -36 1
-68 3 -31 2 -57 0 -57 -4 0 -4 -13 -3 -30 2 -19 5 -30 5 -30 -1 0 -6 -5 -7
-10 -4 -6 4 -75 6 -153 5 -180 -1 -165 -1 -215 2 -23 2 -42 0 -42 -4 0 -4 -13
-3 -30 2 -19 5 -30 5 -30 -1 0 -6 -5 -7 -11 -3 -9 5 -100 6 -279 3 -8 0 -89 1
-178 1 -90 1 -166 -1 -169 -4 -3 -3 -14 -1 -24 4 -12 7 -20 6 -25 -2 -4 -6 -7
-266 -7 -577 l0 -566 849 -2 c467 -1 863 -2 881 -2 l31 -1 -14 -53 c-8 -28
-16 -59 -18 -67 -2 -8 -13 -41 -24 -72 -11 -31 -17 -59 -14 -62 3 -3 0 -6 -6
-6 -7 0 -12 -7 -12 -15 0 -8 -4 -23 -9 -33 -5 -9 -32 -65 -60 -123 -28 -59
-62 -123 -76 -143 -14 -20 -25 -39 -25 -42 0 -9 -112 -158 -132 -175 -10 -9
-18 -19 -18 -23 0 -8 -163 -169 -206 -204 -71 -57 -206 -140 -320 -198 -68
-35 -124 -61 -124 -58 0 2 -13 -2 -28 -10 -26 -14 -167 -62 -208 -71 -11 -2
-44 -11 -74 -20 -30 -8 -73 -18 -94 -20 -21 -3 -42 -7 -45 -9 -6 -4 -76 -16
-116 -21 -11 -1 -40 -5 -65 -9 -25 -4 -88 -9 -140 -11 -52 -2 -97 -5 -100 -5
-25 -6 -317 6 -360 15 -14 3 -47 8 -75 11 -27 3 -53 8 -56 10 -4 2 -24 6 -45
10 -55 8 -193 42 -229 57 -16 6 -32 12 -35 13 -69 13 -286 113 -415 191 -60
37 -112 69 -115 73 -3 3 -21 17 -40 30 -19 13 -40 29 -46 35 -6 5 -35 30 -65
55 -192 160 -374 390 -491 620 -13 25 -27 48 -31 51 -5 3 -8 9 -8 13 1 3 -8
25 -19 49 -25 53 -90 226 -95 251 -3 10 -13 48 -24 85 -24 80 -29 100 -51 205
-13 64 -14 70 -25 161 -3 33 -9 71 -12 85 -7 33 -12 503 -6 513 3 5 7 34 8 65
4 82 17 160 71 422 7 34 73 244 91 290 4 8 7 17 8 20 1 3 9 22 18 44 9 21 17
40 17 42 0 8 108 222 135 269 33 57 70 115 84 131 4 5 14 21 21 35 7 13 16 26
20 29 5 3 28 32 53 65 66 87 178 200 297 299 48 40 257 176 270 176 5 0 10 4
10 10 0 5 4 9 8 7 9 -3 106 45 110 56 2 4 10 7 18 7 8 0 22 5 32 10 42 25 268
105 352 126 8 2 32 8 52 13 20 5 39 6 42 3 4 -3 6 0 6 7 0 7 4 10 8 7 4 -3 26
0 48 5 21 5 55 12 74 15 19 2 46 7 60 10 134 26 544 25 685 -1 50 -9 139 -26
165 -31 14 -3 34 -8 45 -11 11 -4 26 -8 33 -9 69 -12 330 -111 403 -152 100
-57 153 -91 236 -153 97 -73 258 -227 308 -294 16 -22 32 -42 35 -45 21 -20
77 -101 130 -190 34 -58 64 -106 65 -108 1 -2 45 20 96 48 52 28 110 59 129
68 19 9 37 19 40 22 3 3 32 19 65 35 33 17 62 32 65 35 3 3 43 25 90 49 47 24
102 55 123 68 20 13 37 20 37 16 0 -5 4 -3 8 2 4 6 34 24 67 41 114 60 130 69
133 77 2 4 10 7 19 7 8 0 27 8 41 19 15 10 45 26 67 37 22 10 42 21 45 24 3 4
28 17 55 30 82 38 81 32 30 119 -24 42 -152 228 -168 246 -10 11 -26 32 -35
48 -9 15 -20 27 -24 27 -4 0 -8 5 -8 11 0 6 -6 16 -12 23 -7 7 -38 42 -68 77
-58 68 -292 304 -350 354 -19 17 -64 53 -100 80 -36 28 -71 55 -78 62 -7 7
-26 20 -42 30 -17 9 -30 21 -30 25 0 4 -4 8 -9 8 -6 0 -40 21 -76 46 -37 25
-77 50 -89 55 -11 5 -34 18 -51 28 -34 22 -290 151 -299 151 -4 0 -25 9 -49
19 -41 19 -157 62 -207 77 -104 32 -288 82 -320 87 -19 3 -48 8 -65 12 -67 13
-181 30 -270 41 -222 25 -728 25 -940 -1 -16 -2 -57 -6 -90 -9 -33 -4 -69 -8
-80 -11 -11 -2 -42 -7 -70 -10 -27 -4 -59 -9 -70 -13 -11 -3 -31 -7 -45 -8
-14 -1 -25 -3 -25 -4 0 -2 -18 -6 -65 -15 -19 -3 -80 -17 -135 -31 -55 -14
-104 -27 -110 -28 -125 -30 -439 -149 -595 -226 -102 -51 -186 -94 -190 -99
-3 -3 -25 -17 -50 -30 -25 -14 -48 -29 -51 -33 -3 -5 -13 -10 -22 -12 -9 -1
-24 -9 -34 -17 -36 -29 -82 -59 -92 -59 -5 0 -11 -3 -13 -7 -1 -5 -46 -40 -98
-79 -52 -39 -106 -81 -120 -93 -14 -12 -45 -38 -69 -59 -62 -52 -285 -274
-351 -351 -65 -75 -170 -210 -207 -266 -14 -22 -30 -41 -34 -43 -5 -2 -9 -7
-9 -12 0 -5 -15 -30 -32 -58 l-33 -49 -107 0 c-58 -1 -111 -4 -117 -8 -6 -3
-11 -3 -11 2 0 9 -202 8 -225 -1 -8 -3 -15 -2 -15 2 0 8 -203 7 -225 -2 -8 -3
-15 -2 -15 2 0 8 -1527 8 -1535 0 -4 -4 -7 -668 -5 -1089 l0 -55 871 0 c479 1
875 -1 879 -4 9 -6 -56 -240 -70 -254 -6 -6 -10 -16 -10 -23 0 -13 -53 -137
-70 -163 -5 -8 -16 -30 -25 -48 -8 -19 -28 -54 -45 -78 -16 -25 -30 -47 -30
-49 0 -5 -70 -106 -80 -115 -3 -3 -17 -22 -33 -42 -44 -60 -198 -211 -262
-259 -33 -24 -64 -47 -70 -52 -49 -37 -316 -185 -323 -179 -1 2 -23 -6 -48
-18 -26 -11 -52 -20 -60 -20 -7 0 -16 -5 -19 -10 -4 -6 -10 -8 -15 -5 -5 3
-11 1 -15 -5 -4 -6 -11 -8 -16 -5 -5 4 -9 2 -9 -2 0 -5 -8 -9 -17 -10 -10 -1
-57 -13 -105 -26 -47 -14 -89 -23 -92 -19 -3 3 -6 1 -6 -4 0 -5 -8 -10 -17
-10 -10 -1 -34 -4 -53 -7 -19 -4 -66 -12 -105 -18 -38 -6 -81 -12 -95 -15 -14
-2 -86 -7 -160 -9 -74 -3 -139 -6 -145 -6 -5 -1 -14 -1 -19 0 -5 1 -52 4 -105
7 -101 4 -134 7 -216 19 -65 8 -85 12 -115 19 -14 3 -36 8 -50 10 -49 9 -178
46 -266 76 -99 35 -354 159 -354 172 0 5 -4 7 -9 3 -5 -3 -15 1 -23 8 -12 12
-68 51 -117 82 -9 6 -18 12 -21 15 -3 3 -27 23 -55 45 -84 67 -172 150 -245
231 -82 91 -99 112 -93 118 4 3 2 6 -4 6 -5 0 -37 39 -69 88 -32 48 -61 89
-64 92 -12 12 -129 243 -160 315 -32 76 -69 189 -94 285 -10 36 -22 81 -27
100 -5 19 -11 46 -14 60 -2 14 -6 34 -8 45 -5 20 -15 91 -23 150 -23 186 -23
592 0 730 3 17 8 54 11 83 3 30 7 57 9 61 2 3 7 25 10 47 4 23 11 55 16 72 5
18 7 32 4 32 -3 0 0 8 5 18 5 9 11 31 14 47 4 27 30 117 45 155 3 8 6 18 7 23
2 4 3 8 5 10 1 1 3 9 5 17 4 23 71 194 89 229 9 17 16 33 16 36 -1 7 49 96 62
113 6 6 7 12 4 12 -4 0 2 13 13 29 12 16 21 32 21 35 0 4 4 12 10 19 5 7 33
48 62 92 29 44 57 85 63 91 5 6 19 23 30 39 29 40 102 121 165 183 181 178
434 337 690 434 127 48 133 51 145 53 6 2 35 10 65 19 30 10 66 19 80 22 14 3
32 7 40 10 8 4 26 8 40 10 14 1 36 5 50 8 23 6 39 8 115 21 57 9 160 19 217
19 32 1 58 5 58 10 0 5 6 3 13 -3 8 -6 16 -9 19 -6 12 13 297 -1 373 -18 11
-3 42 -8 69 -11 27 -4 52 -9 56 -11 4 -2 17 -6 31 -8 59 -11 169 -40 219 -59
30 -11 60 -21 65 -22 9 -3 26 -9 93 -38 15 -6 29 -12 32 -12 15 -3 146 -71
148 -78 2 -4 8 -8 13 -8 10 0 129 -77 139 -90 3 -3 21 -17 40 -30 19 -14 44
-32 54 -42 11 -10 24 -18 28 -18 5 0 6 -4 3 -10 -3 -5 -1 -10 5 -10 5 0 47
-37 93 -83 86 -86 140 -147 133 -147 -3 0 6 -12 20 -27 30 -32 122 -170 159
-238 15 -27 28 -51 30 -53 2 -2 34 13 72 33 37 21 97 53 133 73 36 19 92 49
125 67 69 37 297 161 400 217 39 21 82 43 98 49 15 6 27 15 27 19 0 5 14 11
30 15 17 4 30 10 30 13 0 4 36 25 80 47 44 21 80 43 80 47 0 4 8 8 18 8 25 0
72 41 55 47 -7 3 -13 10 -13 16 0 11 -85 146 -110 175 -6 6 -8 12 -5 12 4 0
-1 7 -10 16 -8 9 -33 42 -54 73 -21 31 -50 69 -65 84 -14 15 -26 31 -26 34 0
17 -284 323 -299 323 -4 0 -14 11 -21 25 -7 14 -17 25 -21 25 -4 0 -21 12 -37
28 -76 67 -90 80 -127 107 -22 17 -44 35 -50 41 -5 6 -32 26 -60 45 -27 19
-52 36 -55 40 -3 3 -23 16 -45 29 -22 13 -42 26 -45 29 -15 17 -207 124 -323
180 -166 81 -431 176 -570 206 -10 2 -28 7 -39 11 -11 3 -30 7 -41 9 -12 2
-33 6 -47 9 -32 8 -78 16 -110 21 -14 2 -36 6 -50 9 -31 6 -98 15 -170 22 -30
2 -73 7 -95 10 -45 7 -641 14 -647 9z"/>
</g>
</svg>
